<?xml version="1.0" encoding="UTF-8"?>
<svg xmlns="http://www.w3.org/2000/svg" xmlns:xlink="http://www.w3.org/1999/xlink" width="33px" height="33px" viewBox="0 0 33 33" version="1.1">
<g id="surface1">
<path style=" stroke:none;fill-rule:nonzero;fill:rgb(0%,38.039216%,54.11765%);fill-opacity:1;" d="M 0 23.542969 L 1.09375 23.542969 L 1.09375 19.222656 L 2.785156 22.988281 C 2.984375 23.445312 3.257812 23.605469 3.796875 23.605469 C 4.332031 23.605469 4.59375 23.445312 4.792969 22.988281 L 6.484375 19.222656 L 6.484375 23.542969 L 7.578125 23.542969 L 7.578125 19.230469 C 7.578125 18.808594 7.410156 18.605469 7.0625 18.503906 C 6.234375 18.242188 5.675781 18.46875 5.425781 19.027344 L 3.761719 22.742188 L 2.15625 19.027344 C 1.914062 18.46875 1.34375 18.242188 0.515625 18.503906 C 0.167969 18.605469 0 18.808594 0 19.230469 Z M 8.488281 20.027344 L 9.582031 20.027344 L 9.582031 22.40625 C 9.574219 22.535156 9.625 22.835938 10.222656 22.847656 L 12.601562 22.847656 L 12.601562 20.015625 L 13.695312 20.015625 C 13.703125 20.015625 13.695312 23.878906 13.695312 23.894531 C 13.699219 24.847656 12.511719 25.054688 11.964844 25.070312 L 8.511719 25.070312 L 8.511719 24.335938 L 11.972656 24.332031 C 12.675781 24.257812 12.589844 23.910156 12.589844 23.792969 L 12.589844 23.503906 L 10.269531 23.503906 C 9.1875 23.496094 8.5 23.023438 8.488281 22.480469 C 8.488281 22.429688 8.511719 20.050781 8.488281 20.027344 Z M 8.488281 20.027344 "/>
<path style=" stroke:none;fill-rule:nonzero;fill:rgb(89.411765%,55.686277%,0%);fill-opacity:1;" d="M 14.539062 23.542969 L 17.683594 23.542969 C 18.050781 23.542969 18.40625 23.464844 18.691406 23.332031 C 19.164062 23.113281 19.394531 22.820312 19.394531 22.433594 L 19.394531 21.636719 C 19.394531 21.320312 19.132812 21.023438 18.617188 20.828125 C 18.34375 20.722656 18.007812 20.667969 17.683594 20.667969 L 16.355469 20.667969 C 15.914062 20.667969 15.707031 20.535156 15.652344 20.242188 C 15.644531 20.207031 15.644531 20.179688 15.644531 20.144531 L 15.644531 19.644531 C 15.644531 19.617188 15.644531 19.589844 15.652344 19.554688 C 15.707031 19.332031 15.820312 19.265625 16.210938 19.230469 L 16.316406 19.222656 L 19.4375 19.222656 L 19.4375 18.496094 L 16.367188 18.496094 C 15.925781 18.496094 15.695312 18.523438 15.484375 18.585938 C 14.832031 18.789062 14.550781 19.113281 14.550781 19.675781 L 14.550781 20.3125 C 14.550781 20.800781 15.105469 21.222656 16.042969 21.320312 L 16.355469 21.335938 L 17.492188 21.335938 C 17.535156 21.335938 17.578125 21.335938 17.609375 21.339844 C 17.957031 21.371094 18.101562 21.433594 18.207031 21.558594 C 18.261719 21.609375 18.292969 21.679688 18.292969 21.753906 L 18.292969 22.394531 C 18.292969 22.46875 18.238281 22.570312 18.132812 22.652344 C 18.039062 22.738281 17.882812 22.792969 17.671875 22.804688 L 17.554688 22.8125 L 14.539062 22.8125 Z M 26.214844 22.273438 C 26.214844 23.023438 26.773438 23.441406 27.898438 23.527344 L 28.214844 23.542969 L 31.0625 23.542969 L 31.0625 22.8125 L 28.191406 22.8125 C 27.550781 22.8125 27.308594 22.652344 27.308594 22.265625 L 27.308594 18.496094 L 26.21875 18.496094 L 26.21875 22.273438 Z M 20.09375 22.3125 L 20.09375 19.710938 C 20.09375 19.050781 20.558594 18.652344 21.472656 18.523438 C 21.570312 18.511719 21.671875 18.503906 21.769531 18.503906 L 23.84375 18.503906 C 23.949219 18.503906 24.042969 18.511719 24.148438 18.523438 C 25.066406 18.652344 25.53125 19.050781 25.53125 19.710938 L 25.53125 22.3125 C 25.53125 22.847656 25.332031 23.132812 24.878906 23.320312 L 25.957031 24.292969 L 24.6875 24.292969 L 23.816406 23.503906 L 22.9375 23.5625 L 21.769531 23.5625 C 21.550781 23.558594 21.335938 23.53125 21.128906 23.46875 C 20.429688 23.28125 20.09375 22.914062 20.09375 22.3125 Z M 21.273438 22.246094 C 21.273438 22.28125 21.285156 22.316406 21.292969 22.359375 C 21.359375 22.664062 21.640625 22.832031 22.074219 22.832031 L 23.066406 22.832031 L 22.15625 22.007812 L 23.425781 22.007812 L 24.21875 22.726562 C 24.367188 22.648438 24.464844 22.527344 24.496094 22.375 C 24.507812 22.339844 24.507812 22.304688 24.507812 22.269531 L 24.507812 19.777344 C 24.507812 19.75 24.507812 19.710938 24.496094 19.675781 C 24.433594 19.398438 24.148438 19.234375 23.726562 19.234375 L 22.074219 19.234375 C 21.589844 19.234375 21.273438 19.445312 21.273438 19.777344 Z M 21.273438 22.246094 "/>
<path style=" stroke:none;fill-rule:nonzero;fill:rgb(0%,38.039216%,54.11765%);fill-opacity:1;" d="M 32.023438 17.285156 C 31.355469 17.265625 30.839844 17.328125 30.402344 17.515625 C 30.277344 17.566406 30.078125 17.570312 30.054688 17.726562 C 30.125 17.796875 30.136719 17.90625 30.191406 17.992188 C 30.296875 18.164062 30.472656 18.390625 30.628906 18.507812 L 31.164062 18.890625 C 31.492188 19.089844 31.859375 19.207031 32.179688 19.40625 C 32.363281 19.527344 32.550781 19.675781 32.730469 19.808594 C 32.820312 19.875 32.882812 19.976562 33 20.019531 L 33 20 C 32.9375 19.921875 32.921875 19.8125 32.867188 19.730469 L 32.617188 19.484375 C 32.375 19.160156 32.066406 18.878906 31.738281 18.640625 C 31.476562 18.453125 30.890625 18.199219 30.78125 17.898438 L 30.761719 17.878906 C 30.949219 17.859375 31.167969 17.789062 31.335938 17.746094 C 31.625 17.667969 31.882812 17.6875 32.175781 17.609375 L 32.578125 17.496094 L 32.578125 17.417969 C 32.429688 17.265625 32.324219 17.0625 32.160156 16.921875 C 31.730469 16.558594 31.265625 16.195312 30.78125 15.890625 C 30.515625 15.722656 30.1875 15.613281 29.902344 15.46875 C 29.808594 15.421875 29.640625 15.398438 29.578125 15.316406 C 29.429688 15.128906 29.347656 14.886719 29.234375 14.667969 L 28.546875 13.214844 C 28.402344 12.882812 28.308594 12.554688 28.125 12.257812 C 27.257812 10.832031 26.324219 9.96875 24.875 9.125 C 24.570312 8.945312 24.199219 8.875 23.808594 8.78125 L 23.175781 8.742188 C 23.046875 8.6875 22.914062 8.53125 22.792969 8.457031 C 22.316406 8.152344 21.085938 7.496094 20.730469 8.359375 C 20.507812 8.90625 21.066406 9.441406 21.265625 9.71875 C 21.40625 9.914062 21.585938 10.128906 21.6875 10.347656 C 21.753906 10.492188 21.761719 10.636719 21.820312 10.789062 C 21.957031 11.164062 22.078125 11.570312 22.261719 11.914062 C 22.351562 12.089844 22.449219 12.273438 22.566406 12.429688 C 22.636719 12.527344 22.757812 12.570312 22.777344 12.71875 C 22.65625 12.882812 22.652344 13.140625 22.585938 13.347656 C 22.285156 14.289062 22.398438 15.460938 22.832031 16.15625 C 22.964844 16.371094 23.28125 16.832031 23.710938 16.65625 C 24.089844 16.5 24.003906 16.023438 24.113281 15.601562 C 24.136719 15.507812 24.121094 15.4375 24.171875 15.375 L 24.171875 15.394531 L 24.515625 16.082031 C 24.769531 16.492188 25.222656 16.917969 25.605469 17.207031 C 25.804688 17.359375 25.960938 17.617188 26.214844 17.707031 L 26.214844 17.6875 L 26.195312 17.6875 C 26.148438 17.609375 26.070312 17.578125 26.003906 17.515625 C 25.855469 17.367188 25.6875 17.183594 25.566406 17.015625 C 25.21875 16.542969 24.910156 16.027344 24.628906 15.488281 C 24.496094 15.230469 24.378906 14.949219 24.265625 14.6875 C 24.222656 14.585938 24.222656 14.433594 24.132812 14.378906 C 24.007812 14.570312 23.828125 14.726562 23.730469 14.953125 C 23.578125 15.316406 23.558594 15.757812 23.5 16.214844 L 23.464844 16.234375 C 23.199219 16.167969 23.105469 15.894531 23.003906 15.660156 C 22.753906 15.066406 22.707031 14.109375 22.929688 13.425781 C 22.984375 13.246094 23.242188 12.691406 23.136719 12.527344 C 23.089844 12.363281 22.925781 12.269531 22.832031 12.144531 C 22.714844 11.976562 22.609375 11.796875 22.527344 11.609375 C 22.324219 11.144531 22.226562 10.625 22.011719 10.15625 C 21.910156 9.933594 21.734375 9.707031 21.589844 9.507812 C 21.433594 9.285156 21.253906 9.125 21.132812 8.855469 C 21.089844 8.761719 21.03125 8.609375 21.09375 8.511719 C 21.113281 8.445312 21.144531 8.417969 21.207031 8.398438 C 21.320312 8.3125 21.628906 8.425781 21.742188 8.472656 C 22.050781 8.601562 22.308594 8.722656 22.566406 8.894531 C 22.691406 8.976562 22.816406 9.136719 22.96875 9.183594 L 23.140625 9.183594 C 23.410156 9.242188 23.710938 9.199219 23.960938 9.277344 C 24.40625 9.410156 24.804688 9.621094 25.164062 9.851562 C 26.265625 10.546875 27.167969 11.535156 27.78125 12.71875 C 27.882812 12.90625 27.925781 13.089844 28.011719 13.289062 C 28.1875 13.695312 28.410156 14.117188 28.585938 14.515625 C 28.761719 14.910156 28.929688 15.3125 29.179688 15.640625 C 29.308594 15.816406 29.8125 15.90625 30.039062 16.003906 C 30.199219 16.070312 30.460938 16.140625 30.613281 16.234375 C 30.902344 16.410156 31.179688 16.617188 31.453125 16.808594 C 31.589844 16.902344 32.003906 17.113281 32.027344 17.285156 Z M 23.480469 10.003906 C 23.367188 10.003906 23.25 10.015625 23.140625 10.042969 L 23.140625 10.0625 L 23.15625 10.0625 C 23.222656 10.199219 23.34375 10.289062 23.425781 10.40625 L 23.617188 10.808594 L 23.636719 10.789062 C 23.753906 10.707031 23.808594 10.570312 23.808594 10.367188 C 23.757812 10.316406 23.753906 10.253906 23.710938 10.195312 C 23.65625 10.117188 23.550781 10.070312 23.480469 10.003906 Z M 23.480469 10.003906 "/>
</g>
</svg>
