<?xml version="1.0" encoding="UTF-8"?>
<svg xmlns="http://www.w3.org/2000/svg" xmlns:xlink="http://www.w3.org/1999/xlink" width="33px" height="33px" viewBox="0 0 33 33" version="1.1">
<defs>
<linearGradient id="linear0" gradientUnits="userSpaceOnUse" x1="34.513" y1="15.535" x2="27.157" y2="30.448" gradientTransform="matrix(0.389975,0,0,0.389975,0,6.358687)">
<stop offset="0" style="stop-color:rgb(24.705882%,52.941176%,24.705882%);stop-opacity:1;"/>
<stop offset="0.33" style="stop-color:rgb(24.705882%,54.509804%,23.921569%);stop-opacity:1;"/>
<stop offset="0.637" style="stop-color:rgb(24.313725%,58.823529%,21.960784%);stop-opacity:1;"/>
<stop offset="0.934" style="stop-color:rgb(23.921569%,66.27451%,18.039216%);stop-opacity:1;"/>
<stop offset="1" style="stop-color:rgb(23.921569%,68.235294%,16.862745%);stop-opacity:1;"/>
</linearGradient>
<linearGradient id="linear1" gradientUnits="userSpaceOnUse" x1="30.009001" y1="23.358999" x2="50.533001" y2="8.288" gradientTransform="matrix(0.389975,0,0,0.389975,0,6.358687)">
<stop offset="0.138" style="stop-color:rgb(24.705882%,52.941176%,24.705882%);stop-opacity:1;"/>
<stop offset="0.402" style="stop-color:rgb(32.156863%,62.745098%,26.666667%);stop-opacity:1;"/>
<stop offset="0.713" style="stop-color:rgb(39.215686%,71.764706%,28.627451%);stop-opacity:1;"/>
<stop offset="0.908" style="stop-color:rgb(41.568627%,74.901961%,29.411765%);stop-opacity:1;"/>
</linearGradient>
<linearGradient id="linear2" gradientUnits="userSpaceOnUse" x1="21.917" y1="22.261" x2="40.555" y2="22.261" gradientTransform="matrix(0.389975,0,0,0.389975,0,6.358687)">
<stop offset="0.092" style="stop-color:rgb(41.568627%,74.901961%,29.411765%);stop-opacity:1;"/>
<stop offset="0.287" style="stop-color:rgb(39.215686%,71.764706%,28.627451%);stop-opacity:1;"/>
<stop offset="0.598" style="stop-color:rgb(32.156863%,62.745098%,26.666667%);stop-opacity:1;"/>
<stop offset="0.862" style="stop-color:rgb(24.705882%,52.941176%,24.705882%);stop-opacity:1;"/>
</linearGradient>
</defs>
<g id="surface1">
<path style=" stroke:none;fill-rule:nonzero;fill:rgb(37.254903%,62.7451%,30.588236%);fill-opacity:1;" d="M 29.472656 14.246094 L 28.828125 14.609375 L 28.792969 15.382812 C 28.792969 15.414062 28.808594 15.4375 28.828125 15.449219 L 29.433594 15.804688 L 30.113281 15.449219 L 30.148438 14.675781 L 29.507812 14.257812 Z M 16.300781 18.46875 C 16.1875 18.46875 16.078125 18.496094 15.984375 18.546875 L 13.007812 20.28125 C 12.8125 20.398438 12.695312 20.605469 12.695312 20.832031 L 12.695312 24.292969 C 12.695312 24.515625 12.816406 24.726562 13.007812 24.839844 L 13.792969 25.289062 C 14.171875 25.476562 14.308594 25.476562 14.476562 25.476562 C 15.039062 25.476562 15.359375 25.132812 15.359375 24.539062 L 15.359375 21.125 C 15.359375 21.074219 15.320312 21.035156 15.269531 21.035156 L 14.890625 21.035156 C 14.839844 21.035156 14.800781 21.074219 14.800781 21.125 L 14.800781 24.539062 C 14.800781 24.800781 14.523438 25.066406 14.082031 24.839844 L 13.269531 24.367188 C 13.238281 24.351562 13.226562 24.3125 13.226562 24.285156 L 13.226562 20.824219 C 13.226562 20.792969 13.238281 20.753906 13.269531 20.742188 L 16.246094 19.015625 C 16.269531 19 16.304688 19 16.335938 19.015625 L 19.3125 20.742188 C 19.34375 20.753906 19.359375 20.785156 19.359375 20.824219 L 19.359375 24.285156 C 19.359375 24.320312 19.34375 24.351562 19.3125 24.367188 L 16.335938 26.101562 C 16.3125 26.117188 16.277344 26.117188 16.246094 26.101562 L 15.484375 25.640625 C 15.464844 25.628906 15.433594 25.621094 15.410156 25.636719 C 15.203125 25.753906 15.164062 25.769531 14.964844 25.839844 C 14.917969 25.851562 14.84375 25.882812 14.992188 25.964844 L 15.984375 26.558594 C 16.082031 26.613281 16.1875 26.640625 16.300781 26.640625 C 16.410156 26.640625 16.523438 26.613281 16.613281 26.574219 L 19.589844 24.839844 C 19.785156 24.726562 19.902344 24.515625 19.902344 24.292969 L 19.902344 20.832031 C 19.902344 20.605469 19.785156 20.394531 19.589844 20.28125 L 16.613281 18.546875 C 16.515625 18.496094 16.410156 18.46875 16.300781 18.46875 Z M 20.945312 20.050781 C 20.628906 20.050781 20.371094 20.308594 20.375 20.628906 C 20.371094 20.945312 20.628906 21.203125 20.949219 21.207031 C 21.261719 21.207031 21.523438 20.941406 21.523438 20.628906 C 21.519531 20.3125 21.265625 20.054688 20.949219 20.050781 Z M 20.941406 20.148438 C 21.066406 20.144531 21.191406 20.195312 21.28125 20.285156 C 21.375 20.375 21.425781 20.5 21.425781 20.628906 C 21.425781 20.890625 21.207031 21.117188 20.941406 21.117188 C 20.679688 21.117188 20.460938 20.898438 20.460938 20.628906 C 20.460938 20.359375 20.6875 20.148438 20.941406 20.148438 Z M 20.730469 20.304688 L 20.730469 20.964844 L 20.859375 20.964844 L 20.859375 20.703125 L 20.96875 20.703125 C 21.015625 20.703125 21.03125 20.71875 21.039062 20.753906 C 21.039062 20.761719 21.058594 20.929688 21.058594 20.957031 L 21.195312 20.957031 C 21.179688 20.929688 21.171875 20.839844 21.164062 20.785156 C 21.15625 20.703125 21.148438 20.644531 21.058594 20.636719 C 21.105469 20.621094 21.179688 20.597656 21.179688 20.476562 C 21.179688 20.304688 21.027344 20.304688 20.953125 20.304688 Z M 20.84375 20.410156 L 20.945312 20.410156 C 20.984375 20.410156 21.042969 20.410156 21.042969 20.5 C 21.042969 20.53125 21.03125 20.589844 20.945312 20.589844 L 20.84375 20.589844 Z M 17.113281 20.929688 C 16.261719 20.929688 15.753906 21.289062 15.753906 21.898438 C 15.753906 22.550781 16.261719 22.730469 17.074219 22.8125 C 18.050781 22.910156 18.128906 23.054688 18.128906 23.246094 C 18.128906 23.585938 17.859375 23.730469 17.230469 23.730469 C 16.441406 23.730469 16.269531 23.53125 16.207031 23.136719 C 16.207031 23.089844 16.171875 23.0625 16.128906 23.0625 L 15.738281 23.0625 C 15.691406 23.0625 15.648438 23.101562 15.648438 23.152344 C 15.648438 23.660156 15.917969 24.261719 17.226562 24.261719 C 18.164062 24.261719 18.710938 23.886719 18.710938 23.226562 C 18.710938 22.578125 18.277344 22.40625 17.359375 22.285156 C 16.433594 22.167969 16.335938 22.097656 16.335938 21.882812 C 16.335938 21.703125 16.417969 21.460938 17.105469 21.460938 C 17.714844 21.460938 17.949219 21.597656 18.039062 22.007812 C 18.046875 22.046875 18.082031 22.074219 18.121094 22.078125 L 18.515625 22.078125 C 18.539062 22.078125 18.558594 22.0625 18.574219 22.046875 C 18.589844 22.027344 18.597656 22.003906 18.597656 21.980469 C 18.539062 21.257812 18.066406 20.929688 17.113281 20.929688 Z M 17.113281 20.929688 "/>
<path style=" stroke:none;fill-rule:nonzero;fill:rgb(20%,20%,20%);fill-opacity:1;" d="M 22.191406 6.359375 C 22.160156 6.359375 22.128906 6.367188 22.101562 6.382812 C 22.039062 6.414062 22.003906 6.476562 22.003906 6.546875 L 22.003906 11.425781 C 22.003906 11.472656 21.980469 11.515625 21.933594 11.546875 C 21.894531 11.570312 21.84375 11.570312 21.800781 11.546875 L 21.011719 11.089844 C 20.894531 11.019531 20.746094 11.019531 20.628906 11.089844 L 17.46875 12.929688 C 17.347656 12.996094 17.273438 13.121094 17.273438 13.257812 L 17.273438 16.929688 C 17.273438 17.0625 17.347656 17.191406 17.46875 17.261719 L 20.628906 19.097656 C 20.75 19.167969 20.894531 19.167969 21.011719 19.097656 L 24.175781 17.261719 C 24.292969 17.191406 24.367188 17.0625 24.367188 16.929688 L 24.367188 7.777344 C 24.367188 7.636719 24.292969 7.507812 24.175781 7.441406 L 22.285156 6.382812 C 22.257812 6.367188 22.222656 6.359375 22.191406 6.359375 Z M 3.527344 10.9375 C 3.46875 10.9375 3.410156 10.960938 3.359375 10.992188 L 0.195312 12.824219 C 0.0742188 12.890625 0 13.019531 0 13.160156 L 0.0078125 18.085938 C 0.0078125 18.152344 0.0429688 18.21875 0.105469 18.25 C 0.160156 18.289062 0.234375 18.289062 0.292969 18.25 L 2.171875 17.167969 C 2.289062 17.101562 2.363281 16.972656 2.363281 16.839844 L 2.363281 14.535156 C 2.363281 14.398438 2.441406 14.269531 2.558594 14.203125 L 3.359375 13.738281 C 3.417969 13.699219 3.484375 13.6875 3.550781 13.6875 C 3.617188 13.6875 3.6875 13.699219 3.738281 13.738281 L 4.535156 14.203125 C 4.65625 14.269531 4.730469 14.398438 4.730469 14.535156 L 4.730469 16.839844 C 4.730469 16.972656 4.804688 17.101562 4.925781 17.167969 L 6.789062 18.25 C 6.847656 18.289062 6.925781 18.289062 6.984375 18.25 C 7.042969 18.21875 7.082031 18.152344 7.082031 18.085938 L 7.082031 13.160156 C 7.082031 13.027344 7.003906 12.898438 6.886719 12.828125 L 3.730469 10.992188 C 3.675781 10.960938 3.621094 10.945312 3.558594 10.9375 Z M 29.480469 10.992188 C 29.417969 10.992188 29.351562 11.011719 29.292969 11.042969 L 26.128906 12.882812 C 26.007812 12.949219 25.933594 13.078125 25.933594 13.214844 L 25.933594 16.882812 C 25.933594 17.019531 26.007812 17.148438 26.128906 17.214844 L 29.269531 19.015625 C 29.382812 19.085938 29.527344 19.085938 29.640625 19.015625 L 31.546875 17.949219 C 31.605469 17.917969 31.640625 17.855469 31.640625 17.785156 C 31.640625 17.71875 31.605469 17.652344 31.546875 17.621094 L 28.367188 15.78125 C 28.308594 15.746094 28.273438 15.683594 28.269531 15.617188 L 28.269531 14.464844 C 28.269531 14.398438 28.308594 14.335938 28.367188 14.300781 L 29.359375 13.730469 C 29.417969 13.695312 29.496094 13.695312 29.554688 13.730469 L 30.546875 14.300781 C 30.605469 14.335938 30.640625 14.398438 30.644531 14.464844 L 30.644531 15.367188 C 30.644531 15.433594 30.679688 15.503906 30.738281 15.53125 C 30.800781 15.570312 30.875 15.570312 30.933594 15.53125 L 32.8125 14.429688 C 32.929688 14.359375 33.003906 14.234375 33 14.097656 L 33 13.207031 C 33 13.070312 32.925781 12.941406 32.8125 12.875 L 29.671875 11.042969 C 29.613281 11.011719 29.550781 10.992188 29.480469 10.992188 Z M 20.820312 13.734375 C 20.835938 13.734375 20.855469 13.738281 20.871094 13.746094 L 21.949219 14.375 C 21.980469 14.390625 21.996094 14.429688 21.996094 14.460938 L 21.996094 15.71875 C 21.996094 15.757812 21.980469 15.789062 21.949219 15.804688 L 20.867188 16.433594 C 20.839844 16.449219 20.800781 16.449219 20.769531 16.433594 L 19.691406 15.804688 C 19.660156 15.789062 19.644531 15.75 19.644531 15.71875 L 19.644531 14.460938 C 19.644531 14.421875 19.660156 14.390625 19.691406 14.375 L 20.769531 13.746094 Z M 20.820312 13.734375 "/>
<path style=" stroke:none;fill-rule:nonzero;fill:url(#linear0);" d="M 12.371094 11.058594 C 12.253906 10.992188 12.109375 10.992188 11.988281 11.058594 L 8.847656 12.882812 C 8.730469 12.949219 8.660156 13.078125 8.660156 13.214844 L 8.660156 16.871094 C 8.660156 17.003906 8.738281 17.132812 8.847656 17.199219 L 11.988281 19.023438 C 12.109375 19.089844 12.253906 19.089844 12.371094 19.023438 L 15.511719 17.199219 C 15.628906 17.132812 15.699219 17.003906 15.699219 16.871094 L 15.699219 13.214844 C 15.699219 13.078125 15.625 12.949219 15.511719 12.882812 Z M 12.371094 11.058594 "/>
<path style=" stroke:none;fill-rule:nonzero;fill:url(#linear1);" d="M 15.519531 12.882812 L 12.363281 11.058594 C 12.332031 11.042969 12.300781 11.03125 12.265625 11.019531 L 8.730469 17.109375 C 8.757812 17.148438 8.796875 17.175781 8.832031 17.199219 L 11.988281 19.023438 C 12.078125 19.078125 12.183594 19.089844 12.28125 19.0625 L 15.601562 12.949219 C 15.578125 12.921875 15.550781 12.898438 15.519531 12.882812 Z M 15.519531 12.882812 "/>
<path style=" stroke:none;fill-rule:nonzero;fill:url(#linear2);" d="M 15.519531 17.199219 C 15.609375 17.148438 15.675781 17.058594 15.707031 16.960938 L 12.25 11.011719 C 12.160156 11 12.0625 11.003906 11.980469 11.058594 L 8.847656 12.875 L 12.230469 19.078125 C 12.273438 19.070312 12.324219 19.054688 12.371094 19.03125 Z M 15.519531 17.199219 "/>
</g>
</svg>
